<svg xmlns="http://www.w3.org/2000/svg" width="25" height="25" id="shop">
  <g transform="translate(0 -1027.362)">
    <circle cx="12.5" cy="1039.862" r="12.5" fill="#ffa40b" fill-rule="evenodd"></circle>
    <path fill="#ff7712" d="M13.904 24.906a12.5 12.5 0 0 0 .721-.088 12.5 12.5 0 0 0 1.219-.273 12.5 12.5 0 0 0 1.185-.395 12.5 12.5 0 0 0 1.14-.51 12.5 12.5 0 0 0 1.085-.622 12.5 12.5 0 0 0 1.016-.727 12.5 12.5 0 0 0 .939-.824 12.5 12.5 0 0 0 .852-.914 12.5 12.5 0 0 0 .755-.994 12.5 12.5 0 0 0 .655-1.067 12.5 12.5 0 0 0 .543-1.125 12.5 12.5 0 0 0 .427-1.174 12.5 12.5 0 0 0 .123-.48l-7.7-7.701H8.151l-.144.248L5.824 12l1.186 1.186v4.826l6.894 6.894z" color="#000" font-family="sans-serif" font-weight="400" style="line-height:normal;text-indent:0;text-align:start;text-decoration-line:none;text-decoration-style:solid;text-decoration-color:#000;text-transform:none;block-progression:tb;isolation:auto;mix-blend-mode:normal" transform="translate(0 1027.362)"></path>
    <path fill="#fff" d="m3.156 3.008-.144.248-2.184 3.74h1.186v6.012H13.01V6.996h1.185l-2.328-3.988h-8.71zm.574 1h.278v1.988H2.57l1.16-1.988zm1.278 0h1v1.988h-1V4.008zm2 0h1v1.988h-1V4.008zm2 0h1v1.988h-1V4.008zm2 0h.285l1.16 1.988h-1.445V4.008zm-1.002 2.988h2.004v5.012h-2.004V6.996zm-6.992.012h5.992v5H3.014v-5z" color="#000" font-family="sans-serif" font-weight="400" overflow="visible" style="line-height:normal;text-indent:0;text-align:start;text-decoration-line:none;text-decoration-style:solid;text-decoration-color:#000;text-transform:none;block-progression:tb;isolation:auto;mix-blend-mode:normal" transform="translate(4.996 1032.365)"></path>
  </g>
</svg>
